<?xml version="1.0" encoding="UTF-8" standalone="no"?>
<!DOCTYPE svg PUBLIC "-//W3C//DTD SVG 1.1//EN"
 "http://www.w3.org/Graphics/SVG/1.1/DTD/svg11.dtd">
<!-- Generated by graphviz version 2.44.0 (0)
 -->
<!-- Pages: 1 -->
<svg width="1759pt" height="2003pt"
 viewBox="0.00 0.00 1758.98 2003.00" xmlns="http://www.w3.org/2000/svg" xmlns:xlink="http://www.w3.org/1999/xlink">
<g id="graph0" class="graph" transform="scale(1 1) rotate(0) translate(4 1999)">
<polygon fill="white" stroke="transparent" points="-4,4 -4,-1999 1754.98,-1999 1754.98,4 -4,4"/>
<!-- 0 -->
<g id="node1" class="node">
<title>0</title>
<ellipse fill="none" stroke="black" cx="774.22" cy="-984.92" rx="29.8" ry="18"/>
<text text-anchor="middle" x="774.22" y="-981.22" font-family="Times,serif" font-size="14.00">root</text>
</g>
<!-- 1 -->
<g id="node2" class="node">
<title>1</title>
<ellipse fill="none" stroke="black" cx="374.53" cy="-18" rx="27" ry="18"/>
<text text-anchor="middle" x="374.53" y="-14.3" font-family="Times,serif" font-size="14.00">use</text>
</g>
<!-- 0&#45;&gt;1 -->
<g id="edge1" class="edge">
<title>0&#45;&gt;1</title>
<path fill="none" stroke="black" d="M766.94,-967.31C718.64,-850.46 444.47,-187.2 385.65,-44.89"/>
<polygon fill="black" stroke="black" points="388.85,-43.46 381.79,-35.56 382.38,-46.13 388.85,-43.46"/>
<text text-anchor="middle" x="563.79" y="-509.9" font-family="Times,serif" font-size="14.00">use</text>
</g>
<!-- 2 -->
<g id="node3" class="node">
<title>2</title>
<ellipse fill="none" stroke="black" cx="500.44" cy="-19.48" rx="27" ry="18"/>
<text text-anchor="middle" x="500.44" y="-15.78" font-family="Times,serif" font-size="14.00">use</text>
</g>
<!-- 0&#45;&gt;2 -->
<g id="edge2" class="edge">
<title>0&#45;&gt;2</title>
<path fill="none" stroke="black" d="M769.12,-966.92C735.76,-849.31 549.02,-190.81 508.29,-47.16"/>
<polygon fill="black" stroke="black" points="511.6,-46.03 505.51,-37.36 504.87,-47.94 511.6,-46.03"/>
<text text-anchor="middle" x="626.2" y="-510.84" font-family="Times,serif" font-size="14.00">use</text>
</g>
<!-- 3 -->
<g id="node4" class="node">
<title>3</title>
<ellipse fill="none" stroke="black" cx="625.08" cy="-37.29" rx="27" ry="18"/>
<text text-anchor="middle" x="625.08" y="-33.59" font-family="Times,serif" font-size="14.00">use</text>
</g>
<!-- 0&#45;&gt;3 -->
<g id="edge3" class="edge">
<title>0&#45;&gt;3</title>
<path fill="none" stroke="black" d="M771.37,-966.83C753.08,-850.62 652.13,-209.17 629.56,-65.75"/>
<polygon fill="black" stroke="black" points="632.97,-64.9 627.96,-55.57 626.06,-65.99 632.97,-64.9"/>
<text text-anchor="middle" x="687.97" y="-520.09" font-family="Times,serif" font-size="14.00">use</text>
</g>
<!-- 4 -->
<g id="node5" class="node">
<title>4</title>
<ellipse fill="none" stroke="black" cx="746.36" cy="-71.13" rx="27" ry="18"/>
<text text-anchor="middle" x="746.36" y="-67.43" font-family="Times,serif" font-size="14.00">use</text>
</g>
<!-- 0&#45;&gt;4 -->
<g id="edge4" class="edge">
<title>0&#45;&gt;4</title>
<path fill="none" stroke="black" d="M773.66,-966.67C770.19,-852.78 751.51,-240.07 747.24,-99.76"/>
<polygon fill="black" stroke="black" points="750.72,-99.31 746.92,-89.42 743.73,-99.53 750.72,-99.31"/>
<text text-anchor="middle" x="747.95" y="-537.01" font-family="Times,serif" font-size="14.00">use</text>
</g>
<!-- 5 -->
<g id="node6" class="node">
<title>5</title>
<ellipse fill="none" stroke="black" cx="1091.97" cy="-466.21" rx="55.79" ry="18"/>
<text text-anchor="middle" x="1091.97" y="-462.51" font-family="Times,serif" font-size="14.00">error.rhdl</text>
</g>
<!-- 0&#45;&gt;5 -->
<g id="edge5" class="edge">
<title>0&#45;&gt;5</title>
<path fill="none" stroke="black" d="M784.61,-967.96C830.94,-892.33 1018.84,-585.59 1075.63,-492.88"/>
<polygon fill="black" stroke="black" points="1078.77,-494.46 1081.01,-484.1 1072.8,-490.8 1078.77,-494.46"/>
<text text-anchor="middle" x="914.62" y="-734.22" font-family="Times,serif" font-size="14.00">mod</text>
</g>
<!-- 24 -->
<g id="node25" class="node">
<title>24</title>
<ellipse fill="none" stroke="black" cx="643.15" cy="-712.74" rx="113.98" ry="18"/>
<text text-anchor="middle" x="643.15" y="-709.04" font-family="Times,serif" font-size="14.00">PreciseSynParseError</text>
</g>
<!-- 0&#45;&gt;24 -->
<g id="edge53" class="edge">
<title>0&#45;&gt;24</title>
<path fill="none" stroke="black" d="M765.82,-967.48C743.59,-921.32 683.1,-795.72 656.27,-739.99"/>
<polygon fill="black" stroke="black" points="659.31,-738.23 651.82,-730.74 653,-741.27 659.31,-738.23"/>
<text text-anchor="middle" x="697.05" y="-857.54" font-family="Times,serif" font-size="14.00">pub</text>
</g>
<!-- 25 -->
<g id="node26" class="node">
<title>25</title>
<ellipse fill="none" stroke="black" cx="348.63" cy="-645.52" rx="80.69" ry="18"/>
<text text-anchor="middle" x="348.63" y="-641.82" font-family="Times,serif" font-size="14.00">DuplicateError</text>
</g>
<!-- 0&#45;&gt;25 -->
<g id="edge54" class="edge">
<title>0&#45;&gt;25</title>
<path fill="none" stroke="black" d="M756.2,-970.55C690.13,-917.86 460.64,-734.85 378.31,-669.19"/>
<polygon fill="black" stroke="black" points="380.36,-666.35 370.36,-662.85 376,-671.82 380.36,-666.35"/>
<text text-anchor="middle" x="553.26" y="-823.67" font-family="Times,serif" font-size="14.00">pub</text>
</g>
<!-- 26 -->
<g id="node27" class="node">
<title>26</title>
<ellipse fill="none" stroke="black" cx="112.44" cy="-833.87" rx="112.38" ry="18"/>
<text text-anchor="middle" x="112.44" y="-830.17" font-family="Times,serif" font-size="14.00">UnexpectedModError</text>
</g>
<!-- 0&#45;&gt;26 -->
<g id="edge55" class="edge">
<title>0&#45;&gt;26</title>
<path fill="none" stroke="black" d="M746.21,-978.52C650.25,-956.62 332.7,-884.14 186.86,-850.86"/>
<polygon fill="black" stroke="black" points="187.61,-847.44 177.08,-848.63 186.05,-854.26 187.61,-847.44"/>
<text text-anchor="middle" x="452.53" y="-918.49" font-family="Times,serif" font-size="14.00">pub</text>
</g>
<!-- 27 -->
<g id="node28" class="node">
<title>27</title>
<ellipse fill="none" stroke="black" cx="112.44" cy="-1135.97" rx="79.89" ry="18"/>
<text text-anchor="middle" x="112.44" y="-1132.27" font-family="Times,serif" font-size="14.00">DirectoryError</text>
</g>
<!-- 0&#45;&gt;27 -->
<g id="edge56" class="edge">
<title>0&#45;&gt;27</title>
<path fill="none" stroke="black" d="M746.21,-991.31C648.43,-1013.63 320.53,-1088.47 178.72,-1120.84"/>
<polygon fill="black" stroke="black" points="177.81,-1117.46 168.84,-1123.09 179.37,-1124.28 177.81,-1117.46"/>
<text text-anchor="middle" x="448.46" y="-1059.87" font-family="Times,serif" font-size="14.00">pub</text>
</g>
<!-- 28 -->
<g id="node29" class="node">
<title>28</title>
<ellipse fill="none" stroke="black" cx="348.63" cy="-1324.32" rx="81.79" ry="18"/>
<text text-anchor="middle" x="348.63" y="-1320.62" font-family="Times,serif" font-size="14.00">NotFoundError</text>
</g>
<!-- 0&#45;&gt;28 -->
<g id="edge57" class="edge">
<title>0&#45;&gt;28</title>
<path fill="none" stroke="black" d="M756.2,-999.29C690.2,-1051.92 461.17,-1234.57 378.6,-1300.42"/>
<polygon fill="black" stroke="black" points="376.26,-1297.81 370.62,-1306.78 380.62,-1303.28 376.26,-1297.81"/>
<text text-anchor="middle" x="553.4" y="-1153.65" font-family="Times,serif" font-size="14.00">pub</text>
</g>
<!-- 29 -->
<g id="node30" class="node">
<title>29</title>
<ellipse fill="none" stroke="black" cx="643.15" cy="-1257.1" rx="120.48" ry="18"/>
<text text-anchor="middle" x="643.15" y="-1253.4" font-family="Times,serif" font-size="14.00">MultipleDefinitionError</text>
</g>
<!-- 0&#45;&gt;29 -->
<g id="edge58" class="edge">
<title>0&#45;&gt;29</title>
<path fill="none" stroke="black" d="M765.82,-1002.36C743.59,-1048.51 683.1,-1174.12 656.27,-1229.84"/>
<polygon fill="black" stroke="black" points="653,-1228.57 651.82,-1239.09 659.31,-1231.6 653,-1228.57"/>
<text text-anchor="middle" x="697.05" y="-1119.9" font-family="Times,serif" font-size="14.00">pub</text>
</g>
<!-- 30 -->
<g id="node31" class="node">
<title>30</title>
<ellipse fill="none" stroke="black" cx="1166.57" cy="-1377.6" rx="66.09" ry="18"/>
<text text-anchor="middle" x="1166.57" y="-1373.9" font-family="Times,serif" font-size="14.00">resolve.rhdl</text>
</g>
<!-- 0&#45;&gt;30 -->
<g id="edge30" class="edge">
<title>0&#45;&gt;30</title>
<path fill="none" stroke="black" d="M790.09,-1000.8C850.67,-1061.44 1067.73,-1278.68 1141.68,-1352.69"/>
<polygon fill="black" stroke="black" points="1139.64,-1355.6 1149.18,-1360.2 1144.59,-1350.65 1139.64,-1355.6"/>
<text text-anchor="middle" x="950.38" y="-1180.55" font-family="Times,serif" font-size="14.00">mod</text>
</g>
<!-- 37 -->
<g id="node38" class="node">
<title>37</title>
<ellipse fill="none" stroke="black" cx="1212.93" cy="-1555.86" rx="28.7" ry="18"/>
<text text-anchor="middle" x="1212.93" y="-1552.16" font-family="Times,serif" font-size="14.00">File</text>
</g>
<!-- 0&#45;&gt;37 -->
<g id="edge59" class="edge">
<title>0&#45;&gt;37</title>
<path fill="none" stroke="black" d="M786.88,-1001.39C848.86,-1082.05 1120.37,-1435.4 1194.29,-1531.61"/>
<polygon fill="black" stroke="black" points="1191.56,-1533.8 1200.43,-1539.6 1197.12,-1529.54 1191.56,-1533.8"/>
<text text-anchor="middle" x="976.58" y="-1270.3" font-family="Times,serif" font-size="14.00">pub</text>
</g>
<!-- 38 -->
<g id="node39" class="node">
<title>38</title>
<ellipse fill="none" stroke="black" cx="1391.19" cy="-1509.5" rx="57.39" ry="18"/>
<text text-anchor="middle" x="1391.19" y="-1505.8" font-family="Times,serif" font-size="14.00">FileGraph</text>
</g>
<!-- 0&#45;&gt;38 -->
<g id="edge60" class="edge">
<title>0&#45;&gt;38</title>
<path fill="none" stroke="black" d="M791.69,-999.77C877.79,-1072.98 1257.08,-1395.47 1363.4,-1485.87"/>
<polygon fill="black" stroke="black" points="1361.26,-1488.64 1371.15,-1492.45 1365.8,-1483.31 1361.26,-1488.64"/>
<text text-anchor="middle" x="1091.55" y="-1246.62" font-family="Times,serif" font-size="14.00">pub</text>
</g>
<!-- 39 -->
<g id="node40" class="node">
<title>39</title>
<ellipse fill="none" stroke="black" cx="1344.83" cy="-1331.24" rx="51.19" ry="18"/>
<text text-anchor="middle" x="1344.83" y="-1327.54" font-family="Times,serif" font-size="14.00">Resolver</text>
</g>
<!-- 0&#45;&gt;39 -->
<g id="edge61" class="edge">
<title>0&#45;&gt;39</title>
<path fill="none" stroke="black" d="M795.55,-997.86C881.56,-1050.06 1203.41,-1245.4 1310.17,-1310.2"/>
<polygon fill="black" stroke="black" points="1308.58,-1313.33 1318.95,-1315.53 1312.21,-1307.35 1308.58,-1313.33"/>
<text text-anchor="middle" x="1038.86" y="-1157.83" font-family="Times,serif" font-size="14.00">pub</text>
</g>
<!-- 41 -->
<g id="node42" class="node">
<title>41</title>
<ellipse fill="none" stroke="black" cx="706.43" cy="-1802.77" rx="59.29" ry="18"/>
<text text-anchor="middle" x="706.43" y="-1799.07" font-family="Times,serif" font-size="14.00">scope.rhdl</text>
</g>
<!-- 0&#45;&gt;41 -->
<g id="edge41" class="edge">
<title>0&#45;&gt;41</title>
<path fill="none" stroke="black" d="M772.71,-1003.15C763.94,-1108.95 719.6,-1643.94 708.8,-1774.16"/>
<polygon fill="black" stroke="black" points="705.29,-1774.24 707.95,-1784.5 712.26,-1774.82 705.29,-1774.24"/>
<text text-anchor="middle" x="725.26" y="-1392.46" font-family="Times,serif" font-size="14.00">mod</text>
</g>
<!-- 48 -->
<g id="node49" class="node">
<title>48</title>
<ellipse fill="none" stroke="black" cx="661.44" cy="-1977" rx="72.59" ry="18"/>
<text text-anchor="middle" x="661.44" y="-1973.3" font-family="Times,serif" font-size="14.00">ScopeBuilder</text>
</g>
<!-- 0&#45;&gt;48 -->
<g id="edge62" class="edge">
<title>0&#45;&gt;48</title>
<path fill="none" stroke="black" d="M772.17,-1002.98C758.55,-1122.76 681.33,-1802.04 664.63,-1948.97"/>
<polygon fill="black" stroke="black" points="661.14,-1948.66 663.49,-1958.99 668.1,-1949.45 661.14,-1948.66"/>
<text text-anchor="middle" x="704.4" y="-1479.78" font-family="Times,serif" font-size="14.00">pub</text>
</g>
<!-- 49 -->
<g id="node50" class="node">
<title>49</title>
<ellipse fill="none" stroke="black" cx="834.82" cy="-1928.85" rx="35.19" ry="18"/>
<text text-anchor="middle" x="834.82" y="-1925.15" font-family="Times,serif" font-size="14.00">Node</text>
</g>
<!-- 0&#45;&gt;49 -->
<g id="edge63" class="edge">
<title>0&#45;&gt;49</title>
<path fill="none" stroke="black" d="M775.38,-1002.93C782.81,-1118.69 823.83,-1757.64 833.01,-1900.51"/>
<polygon fill="black" stroke="black" points="829.52,-1900.89 833.66,-1910.64 836.51,-1900.44 829.52,-1900.89"/>
<text text-anchor="middle" x="790.19" y="-1455.52" font-family="Times,serif" font-size="14.00">pub</text>
</g>
<!-- 50 -->
<g id="node51" class="node">
<title>50</title>
<ellipse fill="none" stroke="black" cx="381.32" cy="-1952.18" rx="33.6" ry="18"/>
<text text-anchor="middle" x="381.32" y="-1948.48" font-family="Times,serif" font-size="14.00">main</text>
</g>
<!-- 0&#45;&gt;50 -->
<g id="edge50" class="edge">
<title>0&#45;&gt;50</title>
<path fill="none" stroke="black" d="M767.07,-1002.53C719.63,-1119.3 450.65,-1781.5 392.43,-1924.82"/>
<polygon fill="black" stroke="black" points="389.13,-1923.65 388.61,-1934.23 395.62,-1926.28 389.13,-1923.65"/>
<text text-anchor="middle" x="563.25" y="-1467.48" font-family="Times,serif" font-size="14.00">item</text>
</g>
<!-- 6 -->
<g id="node7" class="node">
<title>6</title>
<ellipse fill="none" stroke="black" cx="1090.9" cy="-727.3" rx="27" ry="18"/>
<text text-anchor="middle" x="1090.9" y="-723.6" font-family="Times,serif" font-size="14.00">use</text>
</g>
<!-- 5&#45;&gt;6 -->
<g id="edge6" class="edge">
<title>5&#45;&gt;6</title>
<path fill="none" stroke="black" d="M1091.89,-484.57C1091.71,-529.42 1091.24,-644.81 1091.02,-698.73"/>
<polygon fill="black" stroke="black" points="1087.52,-698.94 1090.97,-708.96 1094.52,-698.97 1087.52,-698.94"/>
<text text-anchor="middle" x="1078.95" y="-595.45" font-family="Times,serif" font-size="14.00">use</text>
</g>
<!-- 7 -->
<g id="node8" class="node">
<title>7</title>
<ellipse fill="none" stroke="black" cx="998.34" cy="-643.15" rx="27" ry="18"/>
<text text-anchor="middle" x="998.34" y="-639.45" font-family="Times,serif" font-size="14.00">use</text>
</g>
<!-- 5&#45;&gt;7 -->
<g id="edge7" class="edge">
<title>5&#45;&gt;7</title>
<path fill="none" stroke="black" d="M1082.47,-484.15C1065.87,-515.52 1031.5,-580.48 1012.23,-616.91"/>
<polygon fill="black" stroke="black" points="1009.03,-615.47 1007.44,-625.95 1015.21,-618.75 1009.03,-615.47"/>
<text text-anchor="middle" x="1034.85" y="-554.33" font-family="Times,serif" font-size="14.00">use</text>
</g>
<!-- 8 -->
<g id="node9" class="node">
<title>8</title>
<ellipse fill="none" stroke="black" cx="947.73" cy="-528.75" rx="27" ry="18"/>
<text text-anchor="middle" x="947.73" y="-525.05" font-family="Times,serif" font-size="14.00">use</text>
</g>
<!-- 5&#45;&gt;8 -->
<g id="edge8" class="edge">
<title>5&#45;&gt;8</title>
<path fill="none" stroke="black" d="M1058.51,-480.71C1034.92,-490.94 1003.49,-504.57 980.14,-514.7"/>
<polygon fill="black" stroke="black" points="978.45,-511.62 970.67,-518.81 981.24,-518.04 978.45,-511.62"/>
<text text-anchor="middle" x="1006.83" y="-501.51" font-family="Times,serif" font-size="14.00">use</text>
</g>
<!-- 9 -->
<g id="node10" class="node">
<title>9</title>
<ellipse fill="none" stroke="black" cx="947.73" cy="-403.66" rx="27" ry="18"/>
<text text-anchor="middle" x="947.73" y="-399.96" font-family="Times,serif" font-size="14.00">use</text>
</g>
<!-- 5&#45;&gt;9 -->
<g id="edge9" class="edge">
<title>5&#45;&gt;9</title>
<path fill="none" stroke="black" d="M1058.51,-451.7C1034.92,-441.47 1003.49,-427.84 980.14,-417.71"/>
<polygon fill="black" stroke="black" points="981.24,-414.37 970.67,-413.61 978.45,-420.8 981.24,-414.37"/>
<text text-anchor="middle" x="1006.83" y="-438.51" font-family="Times,serif" font-size="14.00">use</text>
</g>
<!-- 10 -->
<g id="node11" class="node">
<title>10</title>
<ellipse fill="none" stroke="black" cx="998.34" cy="-289.26" rx="27" ry="18"/>
<text text-anchor="middle" x="998.34" y="-285.56" font-family="Times,serif" font-size="14.00">use</text>
</g>
<!-- 5&#45;&gt;10 -->
<g id="edge10" class="edge">
<title>5&#45;&gt;10</title>
<path fill="none" stroke="black" d="M1082.47,-448.27C1065.87,-416.89 1031.5,-351.94 1012.23,-315.51"/>
<polygon fill="black" stroke="black" points="1015.21,-313.67 1007.44,-306.47 1009.03,-316.94 1015.21,-313.67"/>
<text text-anchor="middle" x="1034.85" y="-385.69" font-family="Times,serif" font-size="14.00">use</text>
</g>
<!-- 11 -->
<g id="node12" class="node">
<title>11</title>
<ellipse fill="none" stroke="black" cx="1395.49" cy="-466.21" rx="63.09" ry="18"/>
<text text-anchor="middle" x="1395.49" y="-462.51" font-family="Times,serif" font-size="14.00">render.rhdl</text>
</g>
<!-- 5&#45;&gt;11 -->
<g id="edge11" class="edge">
<title>5&#45;&gt;11</title>
<path fill="none" stroke="black" d="M1147.99,-466.21C1196.99,-466.21 1268.5,-466.21 1322.06,-466.21"/>
<polygon fill="black" stroke="black" points="1322.19,-469.71 1332.19,-466.21 1322.19,-462.71 1322.19,-469.71"/>
<text text-anchor="middle" x="1219.53" y="-470.01" font-family="Times,serif" font-size="14.00">mod</text>
</g>
<!-- 21 -->
<g id="node22" class="node">
<title>21</title>
<ellipse fill="none" stroke="black" cx="1243.73" cy="-617.97" rx="46.59" ry="18"/>
<text text-anchor="middle" x="1243.73" y="-614.27" font-family="Times,serif" font-size="14.00">Routine</text>
</g>
<!-- 5&#45;&gt;21 -->
<g id="edge51" class="edge">
<title>5&#45;&gt;21</title>
<path fill="none" stroke="black" d="M1109.38,-483.62C1136.36,-510.6 1188.39,-562.63 1219.18,-593.42"/>
<polygon fill="black" stroke="black" points="1216.98,-596.17 1226.52,-600.76 1221.93,-591.22 1216.98,-596.17"/>
<text text-anchor="middle" x="1150.28" y="-542.32" font-family="Times,serif" font-size="14.00">pub</text>
</g>
<!-- 22 -->
<g id="node23" class="node">
<title>22</title>
<ellipse fill="none" stroke="black" cx="1243.73" cy="-314.45" rx="83.39" ry="18"/>
<text text-anchor="middle" x="1243.73" y="-310.75" font-family="Times,serif" font-size="14.00">render_location</text>
</g>
<!-- 5&#45;&gt;22 -->
<g id="edge52" class="edge">
<title>5&#45;&gt;22</title>
<path fill="none" stroke="black" d="M1109.38,-448.8C1136.22,-421.96 1187.83,-370.34 1218.69,-339.49"/>
<polygon fill="black" stroke="black" points="1221.46,-341.67 1226.05,-332.12 1216.51,-336.72 1221.46,-341.67"/>
<text text-anchor="middle" x="1150.03" y="-397.94" font-family="Times,serif" font-size="14.00">pub</text>
</g>
<!-- 23 -->
<g id="node24" class="node">
<title>23</title>
<ellipse fill="none" stroke="black" cx="1090.9" cy="-205.12" rx="27" ry="18"/>
<text text-anchor="middle" x="1090.9" y="-201.42" font-family="Times,serif" font-size="14.00">use</text>
</g>
<!-- 5&#45;&gt;23 -->
<g id="edge23" class="edge">
<title>5&#45;&gt;23</title>
<path fill="none" stroke="black" d="M1091.89,-447.85C1091.71,-403 1091.24,-287.61 1091.02,-233.68"/>
<polygon fill="black" stroke="black" points="1094.52,-233.44 1090.97,-223.46 1087.52,-233.47 1094.52,-233.44"/>
<text text-anchor="middle" x="1078.95" y="-344.57" font-family="Times,serif" font-size="14.00">use</text>
</g>
<!-- 5&#45;&gt;24 -->
<g id="edge24" class="edge">
<title>5&#45;&gt;24</title>
<path fill="none" stroke="black" d="M1063.55,-481.82C986.42,-524.18 772.96,-641.43 683.46,-690.6"/>
<polygon fill="black" stroke="black" points="681.77,-687.53 674.69,-695.42 685.14,-693.67 681.77,-687.53"/>
<text text-anchor="middle" x="857.01" y="-590.01" font-family="Times,serif" font-size="14.00">item</text>
</g>
<!-- 5&#45;&gt;25 -->
<g id="edge25" class="edge">
<title>5&#45;&gt;25</title>
<path fill="none" stroke="black" d="M1047.14,-477.02C920.8,-507.5 561.41,-594.19 413.47,-629.88"/>
<polygon fill="black" stroke="black" points="412.51,-626.51 403.61,-632.26 414.16,-633.31 412.51,-626.51"/>
<text text-anchor="middle" x="713.81" y="-557.25" font-family="Times,serif" font-size="14.00">item</text>
</g>
<!-- 5&#45;&gt;26 -->
<g id="edge26" class="edge">
<title>5&#45;&gt;26</title>
<path fill="none" stroke="black" d="M1055.36,-479.95C906.07,-535.98 342.86,-747.38 165.95,-813.79"/>
<polygon fill="black" stroke="black" points="164.72,-810.51 156.59,-817.3 167.18,-817.06 164.72,-810.51"/>
<text text-anchor="middle" x="594.16" y="-650.67" font-family="Times,serif" font-size="14.00">item</text>
</g>
<!-- 5&#45;&gt;27 -->
<g id="edge27" class="edge">
<title>5&#45;&gt;27</title>
<path fill="none" stroke="black" d="M1067.75,-482.76C935.46,-573.22 300.37,-1007.47 146.21,-1112.88"/>
<polygon fill="black" stroke="black" points="143.85,-1110.25 137.58,-1118.78 147.81,-1116.02 143.85,-1110.25"/>
<text text-anchor="middle" x="590.48" y="-801.62" font-family="Times,serif" font-size="14.00">item</text>
</g>
<!-- 5&#45;&gt;28 -->
<g id="edge28" class="edge">
<title>5&#45;&gt;28</title>
<path fill="none" stroke="black" d="M1076.78,-483.74C983,-592 482.94,-1169.27 370.91,-1298.6"/>
<polygon fill="black" stroke="black" points="368,-1296.61 364.1,-1306.46 373.29,-1301.19 368,-1296.61"/>
<text text-anchor="middle" x="707.35" y="-894.97" font-family="Times,serif" font-size="14.00">item</text>
</g>
<!-- 5&#45;&gt;29 -->
<g id="edge29" class="edge">
<title>5&#45;&gt;29</title>
<path fill="none" stroke="black" d="M1081.75,-484.21C1023.06,-587.63 729,-1105.8 658.4,-1230.21"/>
<polygon fill="black" stroke="black" points="655.24,-1228.69 653.35,-1239.12 661.33,-1232.15 655.24,-1228.69"/>
<text text-anchor="middle" x="853.58" y="-861.01" font-family="Times,serif" font-size="14.00">item</text>
</g>
<!-- 12 -->
<g id="node13" class="node">
<title>12</title>
<ellipse fill="none" stroke="black" cx="1171.46" cy="-50.36" rx="27" ry="18"/>
<text text-anchor="middle" x="1171.46" y="-46.66" font-family="Times,serif" font-size="14.00">use</text>
</g>
<!-- 11&#45;&gt;12 -->
<g id="edge12" class="edge">
<title>11&#45;&gt;12</title>
<path fill="none" stroke="black" d="M1385.86,-448.34C1350.52,-382.74 1227.81,-154.97 1185.74,-76.88"/>
<polygon fill="black" stroke="black" points="1188.62,-74.85 1180.8,-67.7 1182.46,-78.17 1188.62,-74.85"/>
<text text-anchor="middle" x="1273.3" y="-266.41" font-family="Times,serif" font-size="14.00">use</text>
</g>
<!-- 13 -->
<g id="node14" class="node">
<title>13</title>
<ellipse fill="none" stroke="black" cx="1296.96" cy="-47.5" rx="27" ry="18"/>
<text text-anchor="middle" x="1296.96" y="-43.8" font-family="Times,serif" font-size="14.00">use</text>
</g>
<!-- 11&#45;&gt;13 -->
<g id="edge13" class="edge">
<title>11&#45;&gt;13</title>
<path fill="none" stroke="black" d="M1391.26,-448.22C1375.78,-382.45 1322.21,-154.8 1303.48,-75.22"/>
<polygon fill="black" stroke="black" points="1306.87,-74.36 1301.18,-65.43 1300.06,-75.96 1306.87,-74.36"/>
<text text-anchor="middle" x="1334.87" y="-265.52" font-family="Times,serif" font-size="14.00">use</text>
</g>
<!-- 14 -->
<g id="node15" class="node">
<title>14</title>
<ellipse fill="none" stroke="black" cx="1417.75" cy="-81.68" rx="27" ry="18"/>
<text text-anchor="middle" x="1417.75" y="-77.98" font-family="Times,serif" font-size="14.00">use</text>
</g>
<!-- 11&#45;&gt;14 -->
<g id="edge14" class="edge">
<title>11&#45;&gt;14</title>
<path fill="none" stroke="black" d="M1396.53,-448.18C1400.1,-386.61 1411.8,-184.42 1416.13,-109.73"/>
<polygon fill="black" stroke="black" points="1419.62,-109.85 1416.71,-99.67 1412.64,-109.45 1419.62,-109.85"/>
<text text-anchor="middle" x="1393.83" y="-282.75" font-family="Times,serif" font-size="14.00">use</text>
</g>
<!-- 15 -->
<g id="node16" class="node">
<title>15</title>
<ellipse fill="none" stroke="black" cx="1523.15" cy="-149.87" rx="27" ry="18"/>
<text text-anchor="middle" x="1523.15" y="-146.17" font-family="Times,serif" font-size="14.00">use</text>
</g>
<!-- 11&#45;&gt;15 -->
<g id="edge15" class="edge">
<title>11&#45;&gt;15</title>
<path fill="none" stroke="black" d="M1402.72,-448.29C1424.05,-395.44 1486.8,-239.93 1512.25,-176.88"/>
<polygon fill="black" stroke="black" points="1515.5,-178.17 1516,-167.58 1509.01,-175.55 1515.5,-178.17"/>
<text text-anchor="middle" x="1444.98" y="-316.39" font-family="Times,serif" font-size="14.00">use</text>
</g>
<!-- 16 -->
<g id="node17" class="node">
<title>16</title>
<ellipse fill="none" stroke="black" cx="1603.83" cy="-246.04" rx="27" ry="18"/>
<text text-anchor="middle" x="1603.83" y="-242.34" font-family="Times,serif" font-size="14.00">use</text>
</g>
<!-- 11&#45;&gt;16 -->
<g id="edge16" class="edge">
<title>11&#45;&gt;16</title>
<path fill="none" stroke="black" d="M1412.19,-448.56C1449.72,-408.9 1540.7,-312.75 1582.36,-268.73"/>
<polygon fill="black" stroke="black" points="1584.97,-271.05 1589.31,-261.38 1579.89,-266.24 1584.97,-271.05"/>
<text text-anchor="middle" x="1484.77" y="-362.44" font-family="Times,serif" font-size="14.00">use</text>
</g>
<!-- 17 -->
<g id="node18" class="node">
<title>17</title>
<ellipse fill="none" stroke="black" cx="1652.66" cy="-361.68" rx="27" ry="18"/>
<text text-anchor="middle" x="1652.66" y="-357.98" font-family="Times,serif" font-size="14.00">use</text>
</g>
<!-- 11&#45;&gt;17 -->
<g id="edge17" class="edge">
<title>11&#45;&gt;17</title>
<path fill="none" stroke="black" d="M1431.79,-451.45C1482.05,-431.03 1572.06,-394.44 1620.19,-374.88"/>
<polygon fill="black" stroke="black" points="1621.57,-378.1 1629.52,-371.09 1618.94,-371.61 1621.57,-378.1"/>
<text text-anchor="middle" x="1513.49" y="-416.97" font-family="Times,serif" font-size="14.00">use</text>
</g>
<!-- 18 -->
<g id="node19" class="node">
<title>18</title>
<ellipse fill="none" stroke="black" cx="1656.74" cy="-553.2" rx="94.48" ry="18"/>
<text text-anchor="middle" x="1656.74" y="-549.5" font-family="Times,serif" font-size="14.00">MOD_FILE_STEM</text>
</g>
<!-- 11&#45;&gt;18 -->
<g id="edge18" class="edge">
<title>11&#45;&gt;18</title>
<path fill="none" stroke="black" d="M1436.6,-479.9C1480.65,-494.56 1550.87,-517.95 1600.13,-534.35"/>
<polygon fill="black" stroke="black" points="1599.1,-537.69 1609.69,-537.53 1601.31,-531.05 1599.1,-537.69"/>
<text text-anchor="middle" x="1501.87" y="-510.92" font-family="Times,serif" font-size="14.00">item</text>
</g>
<!-- 19 -->
<g id="node20" class="node">
<title>19</title>
<ellipse fill="none" stroke="black" cx="1531.64" cy="-774.84" rx="92.08" ry="18"/>
<text text-anchor="middle" x="1531.64" y="-771.14" font-family="Times,serif" font-size="14.00">UNKNOWN_FILE</text>
</g>
<!-- 11&#45;&gt;19 -->
<g id="edge19" class="edge">
<title>11&#45;&gt;19</title>
<path fill="none" stroke="black" d="M1403.4,-484.14C1426.19,-535.81 1492.14,-685.3 1519.51,-747.35"/>
<polygon fill="black" stroke="black" points="1516.47,-749.13 1523.71,-756.86 1522.88,-746.3 1516.47,-749.13"/>
<text text-anchor="middle" x="1444.95" y="-619.54" font-family="Times,serif" font-size="14.00">item</text>
</g>
<!-- 20 -->
<g id="node21" class="node">
<title>20</title>
<ellipse fill="none" stroke="black" cx="1270.17" cy="-887.45" rx="126.18" ry="18"/>
<text text-anchor="middle" x="1270.17" y="-883.75" font-family="Times,serif" font-size="14.00">UNKNOWN_DIRECTORY</text>
</g>
<!-- 11&#45;&gt;20 -->
<g id="edge20" class="edge">
<title>11&#45;&gt;20</title>
<path fill="none" stroke="black" d="M1390.1,-484.31C1370.42,-550.47 1302.29,-779.51 1278.47,-859.57"/>
<polygon fill="black" stroke="black" points="1275.03,-858.84 1275.54,-869.42 1281.74,-860.83 1275.03,-858.84"/>
<text text-anchor="middle" x="1317.79" y="-675.74" font-family="Times,serif" font-size="14.00">item</text>
</g>
<!-- 11&#45;&gt;21 -->
<g id="edge21" class="edge">
<title>11&#45;&gt;21</title>
<path fill="none" stroke="black" d="M1378.08,-483.62C1351.09,-510.6 1299.07,-562.63 1268.28,-593.42"/>
<polygon fill="black" stroke="black" points="1265.53,-591.22 1260.93,-600.76 1270.48,-596.17 1265.53,-591.22"/>
<text text-anchor="middle" x="1306.68" y="-542.32" font-family="Times,serif" font-size="14.00">item</text>
</g>
<!-- 11&#45;&gt;22 -->
<g id="edge22" class="edge">
<title>11&#45;&gt;22</title>
<path fill="none" stroke="black" d="M1378.08,-448.8C1351.24,-421.96 1299.62,-370.34 1268.77,-339.49"/>
<polygon fill="black" stroke="black" points="1270.95,-336.72 1261.4,-332.12 1266,-341.67 1270.95,-336.72"/>
<text text-anchor="middle" x="1306.93" y="-397.94" font-family="Times,serif" font-size="14.00">item</text>
</g>
<!-- 31 -->
<g id="node32" class="node">
<title>31</title>
<ellipse fill="none" stroke="black" cx="1104.48" cy="-1692.11" rx="27" ry="18"/>
<text text-anchor="middle" x="1104.48" y="-1688.41" font-family="Times,serif" font-size="14.00">use</text>
</g>
<!-- 30&#45;&gt;31 -->
<g id="edge31" class="edge">
<title>30&#45;&gt;31</title>
<path fill="none" stroke="black" d="M1162.96,-1395.87C1152.56,-1448.54 1122.48,-1600.95 1110,-1664.14"/>
<polygon fill="black" stroke="black" points="1106.52,-1663.69 1108.02,-1674.18 1113.39,-1665.05 1106.52,-1663.69"/>
<text text-anchor="middle" x="1123.98" y="-1533.81" font-family="Times,serif" font-size="14.00">use</text>
</g>
<!-- 32 -->
<g id="node33" class="node">
<title>32</title>
<ellipse fill="none" stroke="black" cx="1019.08" cy="-1600.7" rx="27" ry="18"/>
<text text-anchor="middle" x="1019.08" y="-1597" font-family="Times,serif" font-size="14.00">use</text>
</g>
<!-- 30&#45;&gt;32 -->
<g id="edge32" class="edge">
<title>30&#45;&gt;32</title>
<path fill="none" stroke="black" d="M1154.75,-1395.48C1128.6,-1435.03 1065.8,-1530.02 1035.7,-1575.55"/>
<polygon fill="black" stroke="black" points="1032.74,-1573.69 1030.14,-1583.96 1038.58,-1577.55 1032.74,-1573.69"/>
<text text-anchor="middle" x="1082.73" y="-1489.31" font-family="Times,serif" font-size="14.00">use</text>
</g>
<!-- 33 -->
<g id="node34" class="node">
<title>33</title>
<ellipse fill="none" stroke="black" cx="977.77" cy="-1482.62" rx="27" ry="18"/>
<text text-anchor="middle" x="977.77" y="-1478.92" font-family="Times,serif" font-size="14.00">use</text>
</g>
<!-- 30&#45;&gt;33 -->
<g id="edge33" class="edge">
<title>30&#45;&gt;33</title>
<path fill="none" stroke="black" d="M1137.48,-1393.78C1102.25,-1413.37 1043.23,-1446.21 1007.65,-1466"/>
<polygon fill="black" stroke="black" points="1005.74,-1463.05 998.7,-1470.97 1009.14,-1469.17 1005.74,-1463.05"/>
<text text-anchor="middle" x="1060.06" y="-1433.69" font-family="Times,serif" font-size="14.00">use</text>
</g>
<!-- 34 -->
<g id="node35" class="node">
<title>34</title>
<ellipse fill="none" stroke="black" cx="987.57" cy="-1357.9" rx="27" ry="18"/>
<text text-anchor="middle" x="987.57" y="-1354.2" font-family="Times,serif" font-size="14.00">use</text>
</g>
<!-- 30&#45;&gt;34 -->
<g id="edge34" class="edge">
<title>30&#45;&gt;34</title>
<path fill="none" stroke="black" d="M1104.97,-1370.82C1078.13,-1367.87 1047.58,-1364.51 1024.37,-1361.95"/>
<polygon fill="black" stroke="black" points="1024.59,-1358.46 1014.26,-1360.84 1023.82,-1365.41 1024.59,-1358.46"/>
<text text-anchor="middle" x="1052.17" y="-1370.19" font-family="Times,serif" font-size="14.00">use</text>
</g>
<!-- 35 -->
<g id="node36" class="node">
<title>35</title>
<ellipse fill="none" stroke="black" cx="1046.83" cy="-1247.73" rx="27" ry="18"/>
<text text-anchor="middle" x="1046.83" y="-1244.03" font-family="Times,serif" font-size="14.00">use</text>
</g>
<!-- 30&#45;&gt;35 -->
<g id="edge35" class="edge">
<title>30&#45;&gt;35</title>
<path fill="none" stroke="black" d="M1150.42,-1360.09C1129.13,-1336.99 1091.62,-1296.31 1068.06,-1270.76"/>
<polygon fill="black" stroke="black" points="1070.58,-1268.33 1061.22,-1263.35 1065.43,-1273.07 1070.58,-1268.33"/>
<text text-anchor="middle" x="1096.74" y="-1319.22" font-family="Times,serif" font-size="14.00">use</text>
</g>
<!-- 36 -->
<g id="node37" class="node">
<title>36</title>
<ellipse fill="none" stroke="black" cx="1145.47" cy="-1170.79" rx="27" ry="18"/>
<text text-anchor="middle" x="1145.47" y="-1167.09" font-family="Times,serif" font-size="14.00">use</text>
</g>
<!-- 30&#45;&gt;36 -->
<g id="edge36" class="edge">
<title>30&#45;&gt;36</title>
<path fill="none" stroke="black" d="M1164.69,-1359.25C1160.99,-1322.98 1152.72,-1241.91 1148.33,-1198.88"/>
<polygon fill="black" stroke="black" points="1151.8,-1198.4 1147.31,-1188.81 1144.84,-1199.11 1151.8,-1198.4"/>
<text text-anchor="middle" x="1144.01" y="-1282.86" font-family="Times,serif" font-size="14.00">use</text>
</g>
<!-- 30&#45;&gt;37 -->
<g id="edge37" class="edge">
<title>30&#45;&gt;37</title>
<path fill="none" stroke="black" d="M1171.27,-1395.67C1179.38,-1426.85 1196.05,-1490.95 1205.66,-1527.91"/>
<polygon fill="black" stroke="black" points="1202.38,-1529.21 1208.29,-1538.01 1209.16,-1527.45 1202.38,-1529.21"/>
<text text-anchor="middle" x="1171.96" y="-1465.59" font-family="Times,serif" font-size="14.00">item</text>
</g>
<!-- 30&#45;&gt;38 -->
<g id="edge38" class="edge">
<title>30&#45;&gt;38</title>
<path fill="none" stroke="black" d="M1194.56,-1394.04C1235.16,-1417.88 1310.4,-1462.06 1355.12,-1488.31"/>
<polygon fill="black" stroke="black" points="1353.51,-1491.43 1363.9,-1493.47 1357.05,-1485.39 1353.51,-1491.43"/>
<text text-anchor="middle" x="1258.34" y="-1444.98" font-family="Times,serif" font-size="14.00">item</text>
</g>
<!-- 30&#45;&gt;39 -->
<g id="edge39" class="edge">
<title>30&#45;&gt;39</title>
<path fill="none" stroke="black" d="M1214.81,-1365.05C1239.19,-1358.71 1268.77,-1351.02 1293.56,-1344.57"/>
<polygon fill="black" stroke="black" points="1294.71,-1347.89 1303.51,-1341.98 1292.95,-1341.11 1294.71,-1347.89"/>
<text text-anchor="middle" x="1237.69" y="-1343.61" font-family="Times,serif" font-size="14.00">item</text>
</g>
<!-- 40 -->
<g id="node41" class="node">
<title>40</title>
<ellipse fill="none" stroke="black" cx="1340.71" cy="-1146.28" rx="101.28" ry="18"/>
<text text-anchor="middle" x="1340.71" y="-1142.58" font-family="Times,serif" font-size="14.00">RHDL_EXTENSION</text>
</g>
<!-- 30&#45;&gt;40 -->
<g id="edge40" class="edge">
<title>30&#45;&gt;40</title>
<path fill="none" stroke="black" d="M1179.94,-1359.83C1210.38,-1319.4 1284.97,-1220.32 1320.82,-1172.69"/>
<polygon fill="black" stroke="black" points="1323.83,-1174.52 1327.05,-1164.42 1318.24,-1170.31 1323.83,-1174.52"/>
<text text-anchor="middle" x="1233.88" y="-1270.06" font-family="Times,serif" font-size="14.00">item</text>
</g>
<!-- 42 -->
<g id="node43" class="node">
<title>42</title>
<ellipse fill="none" stroke="black" cx="525.32" cy="-1950.34" rx="27" ry="18"/>
<text text-anchor="middle" x="525.32" y="-1946.64" font-family="Times,serif" font-size="14.00">use</text>
</g>
<!-- 41&#45;&gt;42 -->
<g id="edge42" class="edge">
<title>41&#45;&gt;42</title>
<path fill="none" stroke="black" d="M685.66,-1819.7C652.28,-1846.89 586.82,-1900.23 550.72,-1929.64"/>
<polygon fill="black" stroke="black" points="548.18,-1927.2 542.64,-1936.23 552.6,-1932.63 548.18,-1927.2"/>
<text text-anchor="middle" x="605.69" y="-1878.47" font-family="Times,serif" font-size="14.00">use</text>
</g>
<!-- 43 -->
<g id="node44" class="node">
<title>43</title>
<ellipse fill="none" stroke="black" cx="534.09" cy="-1826.45" rx="27" ry="18"/>
<text text-anchor="middle" x="534.09" y="-1822.75" font-family="Times,serif" font-size="14.00">use</text>
</g>
<!-- 41&#45;&gt;43 -->
<g id="edge43" class="edge">
<title>41&#45;&gt;43</title>
<path fill="none" stroke="black" d="M652.38,-1810.2C625.89,-1813.84 594.68,-1818.13 570.97,-1821.39"/>
<polygon fill="black" stroke="black" points="570.41,-1817.93 560.98,-1822.76 571.36,-1824.86 570.41,-1817.93"/>
<text text-anchor="middle" x="599.17" y="-1819.59" font-family="Times,serif" font-size="14.00">use</text>
</g>
<!-- 44 -->
<g id="node45" class="node">
<title>44</title>
<ellipse fill="none" stroke="black" cx="610.12" cy="-1728.25" rx="27" ry="18"/>
<text text-anchor="middle" x="610.12" y="-1724.55" font-family="Times,serif" font-size="14.00">use</text>
</g>
<!-- 41&#45;&gt;44 -->
<g id="edge44" class="edge">
<title>41&#45;&gt;44</title>
<path fill="none" stroke="black" d="M684.58,-1785.86C670.15,-1774.7 651.19,-1760.03 636.01,-1748.28"/>
<polygon fill="black" stroke="black" points="638.07,-1745.45 628.02,-1742.1 633.78,-1750.99 638.07,-1745.45"/>
<text text-anchor="middle" x="647.79" y="-1770.87" font-family="Times,serif" font-size="14.00">use</text>
</g>
<!-- 45 -->
<g id="node46" class="node">
<title>45</title>
<ellipse fill="none" stroke="black" cx="727.85" cy="-1688.73" rx="27" ry="18"/>
<text text-anchor="middle" x="727.85" y="-1685.03" font-family="Times,serif" font-size="14.00">use</text>
</g>
<!-- 41&#45;&gt;45 -->
<g id="edge45" class="edge">
<title>41&#45;&gt;45</title>
<path fill="none" stroke="black" d="M709.83,-1784.7C713.26,-1766.43 718.61,-1737.95 722.59,-1716.75"/>
<polygon fill="black" stroke="black" points="726.07,-1717.19 724.47,-1706.72 719.19,-1715.9 726.07,-1717.19"/>
<text text-anchor="middle" x="703.71" y="-1754.53" font-family="Times,serif" font-size="14.00">use</text>
</g>
<!-- 46 -->
<g id="node47" class="node">
<title>46</title>
<ellipse fill="none" stroke="black" cx="847.73" cy="-1721.17" rx="27" ry="18"/>
<text text-anchor="middle" x="847.73" y="-1717.47" font-family="Times,serif" font-size="14.00">use</text>
</g>
<!-- 41&#45;&gt;46 -->
<g id="edge46" class="edge">
<title>41&#45;&gt;46</title>
<path fill="none" stroke="black" d="M734.01,-1786.84C758.23,-1772.86 793.35,-1752.57 818.15,-1738.26"/>
<polygon fill="black" stroke="black" points="820.19,-1741.12 827.1,-1733.09 816.69,-1735.06 820.19,-1741.12"/>
<text text-anchor="middle" x="763.58" y="-1766.35" font-family="Times,serif" font-size="14.00">use</text>
</g>
<!-- 47 -->
<g id="node48" class="node">
<title>47</title>
<ellipse fill="none" stroke="black" cx="933.87" cy="-1825.13" rx="38.19" ry="18"/>
<text text-anchor="middle" x="933.87" y="-1821.43" font-family="Times,serif" font-size="14.00">Name</text>
</g>
<!-- 41&#45;&gt;47 -->
<g id="edge47" class="edge">
<title>41&#45;&gt;47</title>
<path fill="none" stroke="black" d="M762.95,-1808.33C800.78,-1812.05 850.04,-1816.89 885.96,-1820.42"/>
<polygon fill="black" stroke="black" points="885.88,-1823.93 896.18,-1821.42 886.57,-1816.96 885.88,-1823.93"/>
<text text-anchor="middle" x="807.95" y="-1818.17" font-family="Times,serif" font-size="14.00">item</text>
</g>
<!-- 41&#45;&gt;48 -->
<g id="edge48" class="edge">
<title>41&#45;&gt;48</title>
<path fill="none" stroke="black" d="M701.79,-1820.76C693.94,-1851.15 678.01,-1912.85 668.69,-1948.96"/>
<polygon fill="black" stroke="black" points="665.24,-1948.29 666.13,-1958.85 672.02,-1950.04 665.24,-1948.29"/>
<text text-anchor="middle" x="668.74" y="-1888.66" font-family="Times,serif" font-size="14.00">item</text>
</g>
<!-- 41&#45;&gt;49 -->
<g id="edge49" class="edge">
<title>41&#45;&gt;49</title>
<path fill="none" stroke="black" d="M724.02,-1820.04C746.55,-1842.16 785.7,-1880.61 810.92,-1905.37"/>
<polygon fill="black" stroke="black" points="808.68,-1908.08 818.27,-1912.59 813.58,-1903.08 808.68,-1908.08"/>
<text text-anchor="middle" x="750.97" y="-1866.5" font-family="Times,serif" font-size="14.00">item</text>
</g>
</g>
</svg>
